<?xml version="1.0" encoding="UTF-8" standalone="no"?>
<!-- Created with Inkscape (http://www.inkscape.org/) -->

<svg
   xmlns:dc="http://purl.org/dc/elements/1.1/"
   xmlns:cc="http://creativecommons.org/ns#"
   xmlns:rdf="http://www.w3.org/1999/02/22-rdf-syntax-ns#"
   xmlns:svg="http://www.w3.org/2000/svg"
   xmlns="http://www.w3.org/2000/svg"
   xmlns:sodipodi="http://sodipodi.sourceforge.net/DTD/sodipodi-0.dtd"
   xmlns:inkscape="http://www.inkscape.org/namespaces/inkscape"
   width="64"
   height="64"
   id="svg2"
   version="1.1"
   inkscape:version="0.48.0 r9654"
   sodipodi:docname="RestoTableSelected.svg">
  <defs
     id="defs4" />
  <sodipodi:namedview
     id="base"
     pagecolor="#ffffff"
     bordercolor="#666666"
     borderopacity="1.0"
     inkscape:pageopacity="0.0"
     inkscape:pageshadow="2"
     inkscape:zoom="8.106"
     inkscape:cx="44.624474"
     inkscape:cy="34.405264"
     inkscape:document-units="px"
     inkscape:current-layer="layer1"
     showgrid="false"
     showguides="true"
     inkscape:guide-bbox="true"
     inkscape:window-width="1366"
     inkscape:window-height="746"
     inkscape:window-x="-8"
     inkscape:window-y="-8"
     inkscape:window-maximized="1" />
  <metadata
     id="metadata7">
    <rdf:RDF>
      <cc:Work
         rdf:about="">
        <dc:format>image/svg+xml</dc:format>
        <dc:type
           rdf:resource="http://purl.org/dc/dcmitype/StillImage" />
        <dc:title></dc:title>
      </cc:Work>
    </rdf:RDF>
  </metadata>
  <g
     inkscape:label="Layer 1"
     inkscape:groupmode="layer"
     id="layer1"
     transform="translate(0,-988.36218)">
    <g
       id="g3063"
       transform="matrix(1.006737,0,0,1.0011132,-0.5394866,-1.3993068)"
       style="fill:#ff7f2a">
      <path
         transform="matrix(0.69095041,0,0,-0.69455324,21.581575,1031.3012)"
         d="m 42.19097,15.147298 c 0,14.444161 -11.930236,26.153467 -26.646928,26.153467 -14.71669277,0 -26.646929,-11.709306 -26.646929,-26.153467 0,-14.44416122 11.93023623,-26.153467 26.646929,-26.153467 14.716692,0 26.646928,11.70930578 26.646928,26.153467 z"
         sodipodi:ry="26.153467"
         sodipodi:rx="26.646929"
         sodipodi:cy="15.147298"
         sodipodi:cx="15.544042"
         id="path2985"
         style="fill:#ff7f2a;fill-opacity:1;stroke:#000000;stroke-opacity:1"
         sodipodi:type="arc" />
      <path
         inkscape:connector-curvature="0"
         id="path2989"
         d="m 23.284679,1000.5801 19.5545,0 c 0,0 -1.106858,-8.57498 -10.053964,-8.57498 -8.947107,0 -9.500536,8.57498 -9.500536,8.57498 z"
         style="fill:#ff7f2a;stroke:#000000;stroke-width:0.69050263999999995px;stroke-linecap:butt;stroke-linejoin:miter;stroke-opacity:1" />
      <path
         inkscape:connector-curvature="0"
         id="path2989-1"
         d="m 53.200829,1010.7567 0,19.5545 c 0,0 8.5749,-1.1069 8.5749,-10.054 0,-8.9471 -8.5749,-9.5005 -8.5749,-9.5005 z"
         style="fill:#ff7f2a;stroke:#000000;stroke-width:0.69050263999999995px;stroke-linecap:butt;stroke-linejoin:miter;stroke-opacity:1" />
      <path
         inkscape:connector-curvature="0"
         id="path2989-1-0"
         d="m 11.442643,1010.1398 0,19.5545 c 0,0 -8.574899,-1.1069 -8.574899,-10.054 0,-8.9471 8.574899,-9.5005 8.574899,-9.5005 z"
         style="fill:#ff7f2a;stroke:#000000;stroke-width:0.69050263999999995px;stroke-linecap:butt;stroke-linejoin:miter;stroke-opacity:1" />
      <path
         inkscape:connector-curvature="0"
         id="path2989-2"
         d="m 22.791217,1040.6728 19.5545,0 c 0,0 -1.106858,8.575 -10.053964,8.575 -8.947107,0 -9.500536,-8.575 -9.500536,-8.575 z"
         style="fill:#ff7f2a;stroke:#000000;stroke-width:0.69050263999999995px;stroke-linecap:butt;stroke-linejoin:miter;stroke-opacity:1" />
    </g>
  </g>
</svg>
