<?xml version="1.0" encoding="UTF-8" standalone="no"?>
<!-- Created with Inkscape (http://www.inkscape.org/) -->

<svg
   xmlns:dc="http://purl.org/dc/elements/1.1/"
   xmlns:cc="http://creativecommons.org/ns#"
   xmlns:rdf="http://www.w3.org/1999/02/22-rdf-syntax-ns#"
   xmlns:svg="http://www.w3.org/2000/svg"
   xmlns="http://www.w3.org/2000/svg"
   xmlns:sodipodi="http://sodipodi.sourceforge.net/DTD/sodipodi-0.dtd"
   xmlns:inkscape="http://www.inkscape.org/namespaces/inkscape"
   width="64"
   height="64"
   id="svg2"
   version="1.1"
   inkscape:version="0.48.0 r9654"
   sodipodi:docname="RestoTable.svg">
  <defs
     id="defs4" />
  <sodipodi:namedview
     id="base"
     pagecolor="#ffffff"
     bordercolor="#666666"
     borderopacity="1.0"
     inkscape:pageopacity="0.0"
     inkscape:pageshadow="2"
     inkscape:zoom="8.106"
     inkscape:cx="44.624474"
     inkscape:cy="34.405264"
     inkscape:document-units="px"
     inkscape:current-layer="layer1"
     showgrid="false"
     showguides="true"
     inkscape:guide-bbox="true"
     inkscape:window-width="1366"
     inkscape:window-height="746"
     inkscape:window-x="-8"
     inkscape:window-y="-8"
     inkscape:window-maximized="1" />
  <metadata
     id="metadata7">
    <rdf:RDF>
      <cc:Work
         rdf:about="">
        <dc:format>image/svg+xml</dc:format>
        <dc:type
           rdf:resource="http://purl.org/dc/dcmitype/StillImage" />
        <dc:title />
      </cc:Work>
    </rdf:RDF>
  </metadata>
  <g
     inkscape:label="Layer 1"
     inkscape:groupmode="layer"
     id="layer1"
     transform="translate(0,-988.36218)">
    <path
       sodipodi:type="arc"
       style="fill:#ffffff;fill-opacity:1;stroke:#000000;stroke-opacity:1"
       id="path2985"
       sodipodi:cx="15.544042"
       sodipodi:cy="15.147298"
       sodipodi:rx="26.646929"
       sodipodi:ry="26.153467"
       d="m 42.19097,15.147298 a 26.646929,26.153467 0 1 1 -53.293857,0 26.646929,26.153467 0 1 1 53.293857,0 z"
       transform="matrix(0.69560534,0,0,-0.69532642,21.187483,1031.0499)" />
    <path
       style="fill:#ffffff;stroke:#000000;stroke-width:0.69321023999999998px;stroke-linecap:butt;stroke-linejoin:miter;stroke-opacity:1"
       d="m 22.902061,1000.2946 19.686239,0 c 0,0 -1.114315,-8.58449 -10.121698,-8.58449 -9.007383,0 -9.564541,8.58449 -9.564541,8.58449 z"
       id="path2989"
       inkscape:connector-curvature="0" />
    <path
       style="fill:#ffffff;stroke:#000000;stroke-width:0.69321023999999998px;stroke-linecap:butt;stroke-linejoin:miter;stroke-opacity:1"
       d="m 53.019756,1010.4826 0,19.5762 c 0,0 8.632669,-1.1081 8.632669,-10.0652 0,-8.957 -8.632669,-9.511 -8.632669,-9.511 z"
       id="path2989-1"
       inkscape:connector-curvature="0" />
    <path
       style="fill:#ffffff;stroke:#000000;stroke-width:0.69321023999999998px;stroke-linecap:butt;stroke-linejoin:miter;stroke-opacity:1"
       d="m 10.980245,1009.865 0,19.5762 c 0,0 -8.6326676,-1.1081 -8.6326676,-10.0651 0,-8.9571 8.6326676,-9.5111 8.6326676,-9.5111 z"
       id="path2989-1-0"
       inkscape:connector-curvature="0" />
    <path
       style="fill:#ffffff;stroke:#000000;stroke-width:0.69321023999999998px;stroke-linecap:butt;stroke-linejoin:miter;stroke-opacity:1"
       d="m 22.405275,1040.432 19.686238,0 c 0,0 -1.114314,8.5845 -10.121697,8.5845 -9.007384,0 -9.564541,-8.5845 -9.564541,-8.5845 z"
       id="path2989-2"
       inkscape:connector-curvature="0" />
  </g>
</svg>
